HIERARCHY
ROOT Hips
{
  OFFSET 51.7686 84.733 37.6087
  CHANNELS 6 Xposition Yposition Zposition Zrotation Xrotation Yrotation
  JOINT spine
  {
    OFFSET 0 5.95438 0.342407
    CHANNELS 3 Zrotation Xrotation Yrotation
    JOINT spine1
    {
      OFFSET 0 8.85602 0
      CHANNELS 3 Zrotation Xrotation Yrotation
      JOINT spine2
      {
        OFFSET 0 8.48567 0
        CHANNELS 3 Zrotation Xrotation Yrotation
        JOINT Neck
        {
          OFFSET 0 21.7863 1.0387
          CHANNELS 3 Zrotation Xrotation Yrotation
          JOINT Head
          {
            OFFSET 0 6.5822 0
            CHANNELS 3 Zrotation Xrotation Yrotation
            End Site
            {
              OFFSET 0 15.9326 -5.25436
            }
          }
        }
        JOINT RightShoulder
        {
          OFFSET -3.57307 9.16386 -0.497525
          CHANNELS 3 Zrotation Xrotation Yrotation
          JOINT RightArm
          {
            OFFSET 0 12.0192 0
            CHANNELS 3 Zrotation Xrotation Yrotation
            JOINT RightArmRoll
            {
              OFFSET 0 6.06755 0
              CHANNELS 3 Zrotation Xrotation Yrotation
              JOINT RightForeArm
              {
                OFFSET 0 17.6726 0
                CHANNELS 3 Zrotation Xrotation Yrotation
                JOINT RightForeArmRoll
                {
                  OFFSET 0 6.80872 0
                  CHANNELS 3 Zrotation Xrotation Yrotation
                  JOINT RightHand
                  {
                    OFFSET 0 13.6636 0
                    CHANNELS 3 Zrotation Xrotation Yrotation
                    End Site
                    {
                      OFFSET 0 0 0
                    }
                  }
                }
              }
            }
          }
        }
        JOINT LeftShoulder
        {
          OFFSET 3.57307 9.16386 -0.497525
          CHANNELS 3 Zrotation Xrotation Yrotation
          JOINT LeftArm
          {
            OFFSET 0 12.0192 0
            CHANNELS 3 Zrotation Xrotation Yrotation
            JOINT LeftArmRoll
            {
              OFFSET 0 6.06755 0
              CHANNELS 3 Zrotation Xrotation Yrotation
              JOINT LeftForeArm
              {
                OFFSET 0 17.6726 0
                CHANNELS 3 Zrotation Xrotation Yrotation
                JOINT LeftForeArmRoll
                {
                  OFFSET 0 6.80872 0
                  CHANNELS 3 Zrotation Xrotation Yrotation
                  JOINT LeftHand
                  {
                    OFFSET 0 13.6636 0
                    CHANNELS 3 Zrotation Xrotation Yrotation
                    End Site
                    {
                      OFFSET 0 0 0
                    }
                  }
                }
              }
            }
          }
        }
      }
    }
  }
  JOINT RightUpLeg
  {
    OFFSET -5.27774 -0.967797 -0.811858
    CHANNELS 3 Zrotation Xrotation Yrotation
    JOINT RightUpLegRoll
    {
      OFFSET 0 16.0214 0
      CHANNELS 3 Zrotation Xrotation Yrotation
      JOINT RightLeg
      {
        OFFSET 0 -19.8401 0
        CHANNELS 3 Zrotation Xrotation Yrotation
        JOINT RightLegRoll
        {
          OFFSET 0 19.905 0
          CHANNELS 3 Zrotation Xrotation Yrotation
          JOINT RightFoot
          {
            OFFSET 0 16.5675 0
            CHANNELS 3 Zrotation Xrotation Yrotation
            JOINT RightToeBase
            {
              OFFSET 0 13.8496 0
              CHANNELS 3 Zrotation Xrotation Yrotation
              End Site
              {
                OFFSET 0.00587034 6.70727 -0.773117
              }
            }
          }
        }
      }
    }
  }
  JOINT LeftUpLeg
  {
    OFFSET 5.27774 -0.967797 -0.811858
    CHANNELS 3 Zrotation Xrotation Yrotation
    JOINT LeftUpLegRoll
    {
      OFFSET 0 16.0215 0
      CHANNELS 3 Zrotation Xrotation Yrotation
      JOINT LeftLeg
      {
        OFFSET 0 19.84 0
        CHANNELS 3 Zrotation Xrotation Yrotation
        JOINT LeftLegRoll
        {
          OFFSET 0 20.089 0
          CHANNELS 3 Zrotation Xrotation Yrotation
          JOINT LeftFoot
          {
            OFFSET 0 16.3835 0
            CHANNELS 3 Zrotation Xrotation Yrotation
            JOINT LeftToeBase
            {
              OFFSET 0 13.8496 0
              CHANNELS 3 Zrotation Xrotation Yrotation
              End Site
              {
                OFFSET -0.0263083 6.70727 -0.773117
              }
            }
          }
        }
      }
    }
  }
}
MOTION
Frames: 4
Frame Time: 0.00208333
49.4823 71.6194 7.80805 -7.38222 31.7949 10.1707 1.20638 1.42303 0.152294 2.42125 6.85144 0.112936 2.42556 8.49567 0.0718027 -0.699093 9.34831 -5.3742 5.48295 5.8715 -5.45314 71.1625 0.918376 -0.931374 104.275 32.3441 -9.71908 -3.70031e-006 -7.87616e-006 -9.65574e-007 -3.63584 -0.0362824 -1.99296 -2.16825e-005 4.26875e-006 -3.01161 8.03009 -4.95138 0.697598 -61.1222 -3.68202 2.40492 -124.911 38.8483 30.9983 -3.18055e-015 7.95139e-015 6.36111e-015 3.64181 -0.0284331 1.99249 6.49439e-006 -1.92355e-006 3.01161 -8.03009 -4.95139 -0.697618 -161.195 81.1856 -22.7398 180 7.01647e-015 179.528 -178.971 50.1601 177.226 -4.82919e-006 -3.06388e-006 0.895369 -20.1439 69.651 21.0195 8.13649 25.2327 -3.48773 147.757 80.6785 38.256 4.47153e-006 -3.51245e-005 -0.489827 4.96757 -48.6928 4.04425 2.92717e-006 -1.15251e-006 -0.658131 17.6118 66.0354 -18.0214 -8.13649 25.2326 3.48773 
49.4815 71.7117 7.90838 -7.35891 31.7182 10.1402 1.20198 1.42175 0.151866 2.4124 6.8491 0.112715 2.41668 8.49333 0.0716785 -0.643634 9.18234 -5.38918 5.46841 6.06095 -5.45952 71.2828 0.90007 -0.954918 104.233 32.3908 -9.69646 -3.70031e-006 -7.87616e-006 -9.65574e-007 -3.63583 -0.0363706 -1.99296 -2.16825e-005 4.26875e-006 -3.01161 8.03009 -4.95138 0.697598 -61.2602 -3.66031 2.40293 -124.794 38.8742 30.8907 -7.95139e-015 1.11319e-014 -0 3.64186 -0.028441 1.99249 6.49439e-006 -1.92355e-006 3.01161 -8.03009 -4.95139 -0.697618 -161.527 80.9359 -22.4107 180 7.01647e-015 179.527 -178.945 50.0098 177.222 -4.82919e-006 -3.06388e-006 0.893072 -20.1428 69.6516 21.0199 8.13649 25.2327 -3.48773 148.712 80.4831 37.3027 4.47153e-006 -3.51245e-005 -0.49094 4.94611 -48.5629 4.02191 2.92717e-006 -1.15251e-006 -0.655178 17.6179 66.0482 -18.0306 -8.13649 25.2326 3.48773 
49.4958 71.7844 7.99084 -7.33569 31.6404 10.1083 1.19747 1.42018 0.151422 2.40334 6.84614 0.112523 2.40759 8.49037 0.0715949 -0.587004 9.02568 -5.40328 5.45183 6.24154 -5.46436 71.3983 0.881771 -0.977814 104.198 32.4375 -9.67941 -3.70031e-006 -7.87616e-006 -9.65574e-007 -3.63579 -0.0364572 -1.99297 -2.16825e-005 4.26875e-006 -3.01161 8.03009 -4.95138 0.697598 -61.3924 -3.63966 2.40112 -124.681 38.8964 30.786 -3.18055e-015 1.11319e-014 9.54166e-015 3.6419 -0.028449 1.99249 6.49439e-006 -1.92355e-006 3.01161 -8.03009 -4.95139 -0.697618 -161.832 80.6848 -22.1081 180 7.01647e-015 179.526 -178.918 49.8594 177.218 -4.82919e-006 -3.06388e-006 0.890916 -20.1422 69.6526 21.0209 8.13649 25.2327 -3.48773 149.636 80.2853 36.3801 4.47153e-006 -3.51245e-005 -0.49208 4.92498 -48.4327 3.99977 2.92717e-006 -1.15251e-006 -0.652181 17.6238 66.0606 -18.0394 -8.13649 25.2326 3.48773 
49.4888 71.8752 8.08244 -7.31255 31.5618 10.0746 1.19284 1.41826 0.15096 2.39403 6.84243 0.112366 2.39827 8.48667 0.0715602 -0.52903 8.88067 -5.41638 5.43294 6.41103 -5.4674 71.5083 0.863752 -0.999859 104.169 32.4838 -9.66818 -3.70031e-006 -7.87616e-006 -9.65574e-007 -3.63574 -0.036542 -1.99297 -2.16825e-005 4.26875e-006 -3.01161 8.03009 -4.95138 0.697598 -61.5184 -3.62005 2.39941 -124.573 38.9144 30.6842 3.57812e-015 1.11319e-014 -3.18055e-015 3.64194 -0.0284571 1.99249 6.49439e-006 -1.92355e-006 3.01161 -8.03009 -4.95139 -0.697618 -162.111 80.4323 -21.8314 180 7.01647e-015 179.524 -178.889 49.7089 177.214 -4.82919e-006 -3.06388e-006 0.888916 -20.1422 69.6542 21.0223 8.13649 25.2327 -3.48773 150.532 80.0853 35.4864 4.47153e-006 -3.51245e-005 -0.493249 4.90414 -48.3021 3.9778 2.92717e-006 -1.15251e-006 -0.649132 17.6294 66.0723 -18.0478 -8.13649 25.2326 3.48773 
